<?xml version="1.0" standalone="no"?>
<!DOCTYPE svg PUBLIC "-//W3C//DTD SVG 20010904//EN"
 "http://www.w3.org/TR/2001/REC-SVG-20010904/DTD/svg10.dtd">
<svg version="1.0" xmlns="http://www.w3.org/2000/svg"
 width="253.000000pt" height="253.000000pt" viewBox="0 0 253.000000 253.000000"
 preserveAspectRatio="xMidYMid meet">
<metadata>
Created by potrace 1.11, written by Peter Selinger 2001-2013
</metadata>
<g transform="translate(0.000000,253.000000) scale(0.100000,-0.100000)"
fill="#000000" stroke="none">
<path d="M853 2129 c-86 -14 -159 -47 -194 -86 -27 -32 -31 -41 -26 -80 3 -30
14 -54 32 -73 34 -35 111 -69 173 -76 45 -6 49 -4 87 35 23 25 35 44 30 49 -6
5 -52 16 -104 25 -95 17 -145 39 -138 60 10 30 53 37 240 37 l189 0 -7 -27
c-12 -57 -132 -387 -141 -389 -5 -1 -34 -5 -66 -9 -50 -6 -57 -9 -63 -33 -3
-15 -8 -35 -11 -44 -5 -16 2 -18 51 -18 51 0 55 -2 46 -18 -20 -37 -92 -102
-143 -129 -91 -47 -210 -35 -304 32 -19 14 -23 12 -60 -26 l-39 -40 25 -20
c14 -10 56 -29 93 -40 58 -18 87 -21 181 -17 99 4 119 8 177 35 73 34 145 101
187 175 26 46 28 47 81 50 l55 3 12 41 12 42 -49 6 c-27 4 -49 8 -49 10 0 3
110 328 130 383 10 28 15 31 43 27 28 -5 38 1 81 45 28 28 48 53 45 55 -7 7
-340 26 -436 25 -48 -1 -111 -5 -140 -10z"/>
<path d="M1737 2129 c-87 -11 -194 -49 -251 -89 -79 -53 -120 -152 -96 -227
19 -59 51 -95 165 -183 144 -111 172 -162 123 -225 -70 -89 -285 -98 -479 -19
l-62 25 -43 -42 c-24 -24 -41 -46 -36 -50 9 -8 119 -43 192 -61 120 -29 351
-9 442 38 114 59 148 196 75 305 -12 19 -71 73 -130 120 -124 99 -136 113
-137 156 0 61 75 120 199 157 80 23 191 20 191 -7 0 -25 -53 -75 -123 -117
-42 -25 -77 -48 -77 -51 0 -8 95 -59 111 -59 21 0 140 101 166 139 16 24 23
49 23 82 0 40 -4 51 -30 73 -53 44 -97 51 -223 35z"/>
<path d="M640 855 l0 -285 63 0 62 0 -3 113 c-2 105 -1 111 14 90 l16 -22 49
25 c62 31 124 94 140 141 16 50 7 147 -17 174 -34 39 -76 49 -204 49 l-120 0
0 -285z m221 169 c5 -3 9 -22 9 -43 0 -29 -7 -44 -32 -68 -18 -17 -43 -36 -55
-42 l-23 -12 0 92 0 92 46 -7 c25 -3 50 -8 55 -12z"/>
<path d="M1354 1112 c-66 -23 -96 -43 -129 -86 -81 -106 -70 -289 23 -379 55
-53 124 -77 225 -77 72 0 90 4 147 32 36 17 71 30 79 29 7 -1 24 0 37 3 21 6
24 12 24 55 0 73 -31 80 -130 29 -55 -29 -73 -33 -140 -33 -68 0 -80 3 -113
28 -142 108 -52 323 128 304 30 -3 83 -19 118 -36 36 -17 81 -31 101 -31 l36
0 0 55 c0 58 -4 62 -63 57 -11 -1 -31 6 -45 16 -74 51 -205 66 -298 34z m156
-36 c0 -11 -19 -15 -25 -6 -3 5 1 10 9 10 9 0 16 -2 16 -4z m-144 -27 c10 -17
-13 -36 -27 -22 -12 12 -4 33 11 33 5 0 12 -5 16 -11z m-96 -120 c0 -25 -33
-22 -38 4 -2 12 3 17 17 17 15 0 21 -6 21 -21z m-3 -150 c14 -14 6 -39 -12
-39 -18 0 -28 17 -21 35 6 18 18 19 33 4z m103 -125 c0 -9 -7 -14 -17 -12 -25
5 -28 28 -4 28 12 0 21 -6 21 -16z m134 -35 c-3 -5 -10 -7 -15 -3 -5 3 -7 10
-3 15 3 5 10 7 15 3 5 -3 7 -10 3 -15z"/>
</g>
</svg>
